<svg width="18" height="17" viewBox="0 0 18 17" fill="none" xmlns="http://www.w3.org/2000/svg">
<path d="M7.20703 6.7168V2.11719C7.20703 1.49219 7.36816 0.989258 7.69043 0.608398C8.0127 0.217773 8.44727 0.0224609 8.99414 0.0224609C9.54102 0.0224609 9.97559 0.217773 10.2979 0.608398C10.6299 0.989258 10.7959 1.49219 10.7959 2.11719V6.7168H15.3955C16.0303 6.7168 16.5381 6.88281 16.9189 7.21484C17.2998 7.53711 17.4902 7.9668 17.4902 8.50391C17.4902 9.04102 17.2998 9.47559 16.9189 9.80762C16.5381 10.1396 16.0303 10.3057 15.3955 10.3057H10.7959V14.9053C10.7959 15.5303 10.6299 16.0381 10.2979 16.4287C9.97559 16.8096 9.54102 17 8.99414 17C8.44727 17 8.0127 16.8096 7.69043 16.4287C7.36816 16.0381 7.20703 15.5303 7.20703 14.9053V10.3057H2.60742C2.00195 10.3057 1.49902 10.125 1.09863 9.76367C0.708008 9.39258 0.512695 8.97266 0.512695 8.50391C0.512695 7.9668 0.703125 7.53711 1.08398 7.21484C1.46484 6.88281 1.97266 6.7168 2.60742 6.7168H7.20703Z" fill="#4A1176"/>
</svg>
