<svg width="37" height="37" viewBox="0 0 37 37" fill="none" xmlns="http://www.w3.org/2000/svg">
<path d="M15.5 11.4995C15.2348 11.4995 14.9804 11.6049 14.7929 11.7924C14.6054 11.98 14.5 12.2343 14.5 12.4995C14.5 12.7647 14.6054 13.0191 14.7929 13.2066C14.9804 13.3942 15.2348 13.4995 15.5 13.4995C15.7652 13.4995 16.0196 13.3942 16.2071 13.2066C16.3946 13.0191 16.5 12.7647 16.5 12.4995C16.5 12.2343 16.3946 11.98 16.2071 11.7924C16.0196 11.6049 15.7652 11.4995 15.5 11.4995ZM12.67 11.4995C12.8766 10.914 13.2597 10.407 13.7666 10.0483C14.2735 9.68967 14.8791 9.49707 15.5 9.49707C16.1209 9.49707 16.7265 9.68967 17.2334 10.0483C17.7403 10.407 18.1234 10.914 18.33 11.4995H25.5C25.7652 11.4995 26.0196 11.6049 26.2071 11.7924C26.3946 11.98 26.5 12.2343 26.5 12.4995C26.5 12.7647 26.3946 13.0191 26.2071 13.2066C26.0196 13.3942 25.7652 13.4995 25.5 13.4995H18.33C18.1234 14.0851 17.7403 14.5921 17.2334 14.9507C16.7265 15.3094 16.1209 15.502 15.5 15.502C14.8791 15.502 14.2735 15.3094 13.7666 14.9507C13.2597 14.5921 12.8766 14.0851 12.67 13.4995H11.5C11.2348 13.4995 10.9804 13.3942 10.7929 13.2066C10.6054 13.0191 10.5 12.7647 10.5 12.4995C10.5 12.2343 10.6054 11.98 10.7929 11.7924C10.9804 11.6049 11.2348 11.4995 11.5 11.4995H12.67ZM21.5 17.4995C21.2348 17.4995 20.9804 17.6049 20.7929 17.7924C20.6054 17.9799 20.5 18.2343 20.5 18.4995C20.5 18.7647 20.6054 19.0191 20.7929 19.2066C20.9804 19.3942 21.2348 19.4995 21.5 19.4995C21.7652 19.4995 22.0196 19.3942 22.2071 19.2066C22.3946 19.0191 22.5 18.7647 22.5 18.4995C22.5 18.2343 22.3946 17.9799 22.2071 17.7924C22.0196 17.6049 21.7652 17.4995 21.5 17.4995ZM18.67 17.4995C18.8766 16.914 19.2597 16.407 19.7666 16.0483C20.2735 15.6897 20.8791 15.4971 21.5 15.4971C22.1209 15.4971 22.7265 15.6897 23.2334 16.0483C23.7403 16.407 24.1234 16.914 24.33 17.4995H25.5C25.7652 17.4995 26.0196 17.6049 26.2071 17.7924C26.3946 17.9799 26.5 18.2343 26.5 18.4995C26.5 18.7647 26.3946 19.0191 26.2071 19.2066C26.0196 19.3942 25.7652 19.4995 25.5 19.4995H24.33C24.1234 20.0851 23.7403 20.5921 23.2334 20.9507C22.7265 21.3094 22.1209 21.502 21.5 21.502C20.8791 21.502 20.2735 21.3094 19.7666 20.9507C19.2597 20.5921 18.8766 20.0851 18.67 19.4995H11.5C11.2348 19.4995 10.9804 19.3942 10.7929 19.2066C10.6054 19.0191 10.5 18.7647 10.5 18.4995C10.5 18.2343 10.6054 17.9799 10.7929 17.7924C10.9804 17.6049 11.2348 17.4995 11.5 17.4995H18.67ZM15.5 23.4995C15.2348 23.4995 14.9804 23.6049 14.7929 23.7924C14.6054 23.9799 14.5 24.2343 14.5 24.4995C14.5 24.7647 14.6054 25.0191 14.7929 25.2066C14.9804 25.3942 15.2348 25.4995 15.5 25.4995C15.7652 25.4995 16.0196 25.3942 16.2071 25.2066C16.3946 25.0191 16.5 24.7647 16.5 24.4995C16.5 24.2343 16.3946 23.9799 16.2071 23.7924C16.0196 23.6049 15.7652 23.4995 15.5 23.4995ZM12.67 23.4995C12.8766 22.914 13.2597 22.407 13.7666 22.0483C14.2735 21.6897 14.8791 21.4971 15.5 21.4971C16.1209 21.4971 16.7265 21.6897 17.2334 22.0483C17.7403 22.407 18.1234 22.914 18.33 23.4995H25.5C25.7652 23.4995 26.0196 23.6049 26.2071 23.7924C26.3946 23.9799 26.5 24.2343 26.5 24.4995C26.5 24.7647 26.3946 25.0191 26.2071 25.2066C26.0196 25.3942 25.7652 25.4995 25.5 25.4995H18.33C18.1234 26.0851 17.7403 26.5921 17.2334 26.9507C16.7265 27.3094 16.1209 27.502 15.5 27.502C14.8791 27.502 14.2735 27.3094 13.7666 26.9507C13.2597 26.5921 12.8766 26.0851 12.67 25.4995H11.5C11.2348 25.4995 10.9804 25.3942 10.7929 25.2066C10.6054 25.0191 10.5 24.7647 10.5 24.4995C10.5 24.2343 10.6054 23.9799 10.7929 23.7924C10.9804 23.6049 11.2348 23.4995 11.5 23.4995H12.67Z" fill="white"/>
</svg>
