<svg width="22" height="22" viewBox="0 0 22 22" fill="none" xmlns="http://www.w3.org/2000/svg">
<path d="M8.59455 3.00003C7.04818 2.99185 5.54273 4.48094 6.23 6.33003H3.63636C3.20237 6.33003 2.78616 6.50244 2.47928 6.80931C2.1724 7.11619 2 7.53241 2 7.9664V9.60276C2 9.81976 2.0862 10.0279 2.23964 10.1813C2.39308 10.3347 2.60119 10.4209 2.81818 10.4209H10.1818V7.9664H11.8182V10.4209H19.1818C19.3988 10.4209 19.6069 10.3347 19.7604 10.1813C19.9138 10.0279 20 9.81976 20 9.60276V7.9664C20 7.53241 19.8276 7.11619 19.5207 6.80931C19.2138 6.50244 18.7976 6.33003 18.3636 6.33003H15.77C16.7273 3.65458 13.1273 1.76458 11.4664 4.07185L11 4.69367L10.5336 4.05549C10.0182 3.32731 9.30636 3.00822 8.59455 3.00003ZM8.54545 4.69367C9.27364 4.69367 9.64182 5.57731 9.12636 6.09276C8.61091 6.60822 7.72727 6.24003 7.72727 5.51185C7.72727 5.29486 7.81347 5.08675 7.96691 4.93331C8.12035 4.77987 8.32846 4.69367 8.54545 4.69367ZM13.4545 4.69367C14.1827 4.69367 14.5509 5.57731 14.0355 6.09276C13.52 6.60822 12.6364 6.24003 12.6364 5.51185C12.6364 5.29486 12.7226 5.08675 12.876 4.93331C13.0294 4.77987 13.2375 4.69367 13.4545 4.69367ZM2.81818 11.2391V17.7846C2.81818 18.2186 2.99058 18.6348 3.29746 18.9417C3.60434 19.2485 4.02055 19.4209 4.45455 19.4209H17.5455C17.9794 19.4209 18.3957 19.2485 18.7025 18.9417C19.0094 18.6348 19.1818 18.2186 19.1818 17.7846V11.2391H11.8182V17.7846H10.1818V11.2391H2.81818Z" fill="white"/>
</svg>
