<svg width="28" height="29" viewBox="0 0 28 29" fill="none" xmlns="http://www.w3.org/2000/svg">
<path d="M23.7186 4.7803C23.4979 4.56116 23.221 4.4071 22.9185 4.33507C22.6159 4.26303 22.2993 4.27579 22.0036 4.37196L4.93523 10.0653C4.61868 10.1656 4.33895 10.3575 4.13138 10.6167C3.92381 10.8758 3.7977 11.1907 3.76899 11.5216C3.74028 11.8524 3.81024 12.1843 3.97006 12.4754C4.12987 12.7664 4.37236 13.0036 4.66689 13.157L11.7486 16.657L15.2486 23.762C15.3892 24.0401 15.6045 24.2736 15.8703 24.4363C16.1361 24.5991 16.4419 24.6847 16.7536 24.6836H16.8702C17.204 24.659 17.5227 24.5346 17.7848 24.3266C18.047 24.1185 18.2405 23.8364 18.3402 23.517L24.1152 6.4953C24.2183 6.20122 24.2358 5.88389 24.1656 5.58027C24.0954 5.27666 23.9403 4.99923 23.7186 4.7803ZM5.65856 11.6753L20.5569 6.7053L12.2852 14.977L5.65856 11.6753ZM16.8352 22.8403L13.5219 16.2136L21.7936 7.94196L16.8352 22.8403Z" fill="white"/>
</svg>
