<svg width="24" height="24" viewBox="0 0 24 24" fill="none" xmlns="http://www.w3.org/2000/svg">
<path d="M10.5895 9.25C10.2343 9.25013 9.89365 9.3913 9.64248 9.64248C9.3913 9.89365 9.25013 10.2343 9.25 10.5895C9.25 10.678 9.322 10.75 9.4105 10.75H14.59C14.6326 10.75 14.6734 10.7331 14.7035 10.703C14.7336 10.6729 14.7505 10.6321 14.7505 10.5895C14.7504 10.2343 14.6092 9.89365 14.358 9.64248C14.1068 9.3913 13.7662 9.25013 13.411 9.25H10.5895ZM12 2C11.0159 2.00007 10.0664 2.36285 9.33299 3.01897C8.59957 3.67509 8.13372 4.57851 8.0245 5.5565C5.6195 6.936 4 9.529 4 12.5V14H20V12.5C20 9.529 18.38 6.936 15.9755 5.5565C15.8663 4.57851 15.4004 3.67509 14.667 3.01897C13.9336 2.36285 12.9841 2.00007 12 2ZM12 4.5C11.118 4.5 10.2695 4.6425 9.476 4.9065C9.68921 4.41416 10.0417 3.99493 10.4902 3.70043C10.9387 3.40592 11.4635 3.24901 12 3.24901C12.5365 3.24901 13.0613 3.40592 13.5098 3.70043C13.9583 3.99493 14.3108 4.41416 14.524 4.9065C13.7099 4.63644 12.8577 4.49919 12 4.5ZM8 10.5895C8 9.90272 8.27282 9.24407 8.75845 8.75845C9.24407 8.27282 9.90272 8 10.5895 8H13.4105C14.0973 8 14.7559 8.27282 15.2416 8.75845C15.7272 9.24407 16 9.90272 16 10.5895C16 10.9636 15.8514 11.3224 15.5869 11.5869C15.3224 11.8514 14.9636 12 14.5895 12H9.41C9.036 11.9999 8.67736 11.8512 8.41295 11.5867C8.14854 11.3222 8 10.9635 8 10.5895ZM8 15.25V16.875C8 17.0408 8.06585 17.1997 8.18306 17.3169C8.30027 17.4342 8.45924 17.5 8.625 17.5C8.79076 17.5 8.94973 17.4342 9.06694 17.3169C9.18415 17.1997 9.25 17.0408 9.25 16.875V15.25H20V19.375C20 20.825 18.825 22 17.375 22H6.625C5.92881 22 5.26113 21.7234 4.76884 21.2312C4.27656 20.7389 4 20.0712 4 19.375V15.25H8Z" fill="white"/>
</svg>
