<svg width="16" height="17" viewBox="0 0 16 17" fill="none" xmlns="http://www.w3.org/2000/svg">
<g clip-path="url(#clip0_412_3070)">
<path fill-rule="evenodd" clip-rule="evenodd" d="M4 2.5C4 1.96957 4.21071 1.46086 4.58579 1.08579C4.96086 0.710714 5.46957 0.5 6 0.5L14 0.5C14.5304 0.5 15.0391 0.710714 15.4142 1.08579C15.7893 1.46086 16 1.96957 16 2.5V10.5C16 11.0304 15.7893 11.5391 15.4142 11.9142C15.0391 12.2893 14.5304 12.5 14 12.5H6C5.46957 12.5 4.96086 12.2893 4.58579 11.9142C4.21071 11.5391 4 11.0304 4 10.5V2.5ZM6 1.5C5.73478 1.5 5.48043 1.60536 5.29289 1.79289C5.10536 1.98043 5 2.23478 5 2.5V10.5C5 10.7652 5.10536 11.0196 5.29289 11.2071C5.48043 11.3946 5.73478 11.5 6 11.5H14C14.2652 11.5 14.5196 11.3946 14.7071 11.2071C14.8946 11.0196 15 10.7652 15 10.5V2.5C15 2.23478 14.8946 1.98043 14.7071 1.79289C14.5196 1.60536 14.2652 1.5 14 1.5H6ZM2 5.5C1.73478 5.5 1.48043 5.60536 1.29289 5.79289C1.10536 5.98043 1 6.23478 1 6.5V14.5C1 14.7652 1.10536 15.0196 1.29289 15.2071C1.48043 15.3946 1.73478 15.5 2 15.5H10C10.2652 15.5 10.5196 15.3946 10.7071 15.2071C10.8946 15.0196 11 14.7652 11 14.5V13.5H12V14.5C12 15.0304 11.7893 15.5391 11.4142 15.9142C11.0391 16.2893 10.5304 16.5 10 16.5H2C1.46957 16.5 0.960859 16.2893 0.585786 15.9142C0.210714 15.5391 0 15.0304 0 14.5V6.5C0 5.96957 0.210714 5.46086 0.585786 5.08579C0.960859 4.71071 1.46957 4.5 2 4.5H3V5.5H2Z" fill="black"/>
</g>
<defs>
<clipPath id="clip0_412_3070">
<rect width="16" height="16" fill="white" transform="translate(0 0.5)"/>
</clipPath>
</defs>
</svg>
