<svg width="190" height="101" viewBox="0 0 190 101" fill="none" xmlns="http://www.w3.org/2000/svg">
<mask id="mask0_2199_3394" style="mask-type:luminance" maskUnits="userSpaceOnUse" x="161" y="23" width="29" height="40">
<path d="M161.475 23.1504H189.46V62.0789H161.475V23.1504Z" fill="white"/>
</mask>
<g mask="url(#mask0_2199_3394)">
<path d="M182.25 25.1485C178.057 22.7253 172.883 22.7253 168.69 25.1485C162.195 28.8926 159.974 37.1803 163.721 43.6664L173.455 60.5287C174.345 62.0797 176.579 62.0797 177.47 60.5287L187.204 43.6664C190.957 37.1803 188.739 28.8926 182.25 25.1485ZM175.47 43.7963C172.093 43.7963 169.357 41.0633 169.357 37.6858C169.357 34.3084 172.093 31.5754 175.47 31.5754C178.848 31.5754 181.583 34.3084 181.583 37.6858C181.574 41.0565 178.841 43.7963 175.47 43.7963Z" fill="#ED1C24"/>
</g>
<path d="M33.52 0.592121C51.5415 0.592121 66.2333 15.2817 66.2333 33.3055C66.2333 41.0101 63.4412 48.0087 58.9637 53.6112L95.1547 89.8023L90.0168 94.9379L53.8258 58.7492C48.2232 63.2244 41.2269 66.0188 33.52 66.0188C15.4985 66.0188 0.806641 51.327 0.806641 33.3055C0.806641 15.2817 15.4985 0.589844 33.52 0.589844V0.592121ZM33.52 7.86175C19.4225 7.86175 8.07627 19.208 8.07627 33.3055C8.07627 47.4029 19.4225 58.7492 33.52 58.7492C47.6174 58.7492 58.9637 47.4029 58.9637 33.3055C58.9637 19.208 47.6174 7.86175 33.52 7.86175Z" fill="#ECEFF1"/>
<path d="M93.918 29.4688C94.1958 29.4688 94.337 29.594 94.337 29.8423V51.8971C94.337 54.2543 93.7836 56.2744 92.6791 57.9551C91.5722 59.6382 90.0645 60.9227 88.1515 61.8086C86.243 62.69 84.0999 63.1295 81.72 63.1295C79.4174 63.1295 77.304 62.674 75.3795 61.763C73.4596 60.8521 71.9315 59.5562 70.7973 57.8732C69.6608 56.1856 69.0938 54.1928 69.0938 51.8971V35.5723H75.4433V51.8516C75.6437 53.5096 76.3543 54.7735 77.575 55.6412C78.7957 56.5112 80.1758 56.944 81.72 56.944C82.7812 56.944 83.7902 56.7618 84.7444 56.3974C85.6964 56.033 86.4753 55.4727 87.0765 54.712C87.6823 53.9537 87.9875 53.0153 87.9875 51.8971V29.8423C87.9875 29.594 88.1424 29.4688 88.4521 29.4688H93.918Z" fill="white"/>
<path d="M111.585 56.862V63.1295H96.0623C95.7525 63.1295 95.5977 63.002 95.5977 62.7469V29.8423C95.5977 29.594 95.7525 29.4688 96.0623 29.4688H111.585V35.5723H102.038V43.1881H115.248C115.557 43.1881 115.712 43.3134 115.712 43.5616V48.9091C115.712 49.1596 115.557 49.2826 115.248 49.2826H102.038V56.862H111.585Z" fill="white"/>
<path d="M132.162 44.4453C133.929 45.2606 135.282 46.4472 136.225 48.0072C137.165 49.5627 137.637 51.3369 137.637 53.3274C137.637 55.4294 137.138 57.2127 136.143 58.6748C135.145 60.1324 133.856 61.2415 132.271 61.9999C130.686 62.7537 128.994 63.1295 127.197 63.1295C127.197 63.1295 127.183 63.1295 127.161 63.1295V57.0715C127.183 57.0715 127.197 57.0715 127.197 57.0715C128.32 57.0715 129.301 56.7299 130.139 56.0421C130.982 55.3566 131.406 54.4524 131.406 53.3274C131.406 52.4847 131.187 51.7673 130.75 51.1774C130.317 50.5899 129.777 50.1275 129.128 49.7927C128.484 49.4534 127.839 49.2712 127.197 49.2462C127.056 49.2462 126.496 49.1983 125.512 49.1004C124.532 48.9979 123.426 48.6677 122.187 48.1074C120.449 47.2944 119.103 46.1648 118.151 44.7186C117.197 43.2747 116.721 41.5711 116.721 39.608C116.721 37.5082 117.217 35.6999 118.215 34.1876C119.21 32.6708 120.506 31.5048 122.105 30.6895C123.708 29.8764 125.405 29.4688 127.197 29.4688C129.133 29.4688 130.873 29.8696 132.417 30.6712C133.959 31.4684 135.186 32.5889 136.097 34.0328C137.008 35.479 137.477 37.1552 137.509 39.0614C137.532 39.116 137.496 39.1866 137.4 39.2709C137.302 39.3575 137.184 39.3984 137.045 39.3984H131.788C131.672 39.3984 131.565 39.3575 131.469 39.2709C131.372 39.1866 131.324 39.116 131.324 39.0614C131.292 37.8543 130.871 36.9639 130.057 36.3922C129.242 35.816 128.29 35.5268 127.197 35.5268C126.049 35.5268 125.058 35.8707 124.227 36.5562C123.4 37.244 122.988 38.2597 122.988 39.608C122.988 40.8173 123.421 41.7374 124.291 42.3682C125.166 42.9945 126.133 43.3066 127.197 43.3066C127.281 43.3066 127.561 43.3225 128.035 43.3521C128.513 43.384 129.124 43.4751 129.866 43.6254C130.613 43.778 131.378 44.0513 132.162 44.4453Z" fill="white"/>
<path d="M145.623 41.6668H152.018V62.7469C152.018 63.002 151.85 63.1295 151.517 63.1295H146.088C145.778 63.1295 145.623 63.002 145.623 62.7469V41.6668ZM139.146 35.2353C138.837 35.2353 138.682 35.1077 138.682 34.8527V29.8423C138.682 29.594 138.837 29.4688 139.146 29.4688H158.459C158.769 29.4688 158.924 29.594 158.924 29.8423V34.8527C158.924 35.1077 158.769 35.2353 158.459 35.2353H139.146Z" fill="white"/>
<path d="M130.642 95.4586H136.035V100.323C136.035 100.537 135.903 100.642 135.643 100.642H131.061C129.651 100.642 128.182 100.537 126.652 100.323C125.121 100.111 123.639 99.7198 122.206 99.1481C120.771 98.5719 119.473 97.7612 118.307 96.7158C117.146 95.6659 116.223 94.3108 115.538 92.6528C114.857 90.9948 114.518 88.9542 114.518 86.531C114.518 84.0418 114.864 81.9488 115.556 80.2544C116.248 78.5599 117.178 77.198 118.344 76.1641C119.51 75.1255 120.815 74.3375 122.261 73.7955C123.705 73.2557 125.187 72.8914 126.707 72.7023C128.223 72.5156 129.676 72.4199 131.061 72.4199H135.643C135.903 72.4199 136.035 72.527 136.035 72.7388V83.8163H130.642V77.5761C128.595 77.4554 126.763 77.6831 125.149 78.2593C123.539 78.8378 122.27 79.8034 121.341 81.1562C120.412 82.5045 119.947 84.2968 119.947 86.531C119.947 88.2756 120.198 89.7104 120.703 90.84C121.213 91.965 121.883 92.8441 122.716 93.4818C123.555 94.1195 124.452 94.5841 125.413 94.8756C126.379 95.1671 127.319 95.3448 128.237 95.404C129.152 95.4655 129.954 95.4837 130.642 95.4586Z" fill="white"/>
<path d="M148.627 95.8139C148.887 95.8139 149.019 95.9187 149.019 96.1237V100.323C149.019 100.537 148.887 100.642 148.627 100.642H137.523C137.261 100.642 137.131 100.537 137.131 100.323V96.1237C137.131 95.9187 137.261 95.8139 137.523 95.8139H140.41V72.4199H145.813V95.8139H148.627Z" fill="white"/>
<path d="M155.436 82.6483H160.793V100.321C160.793 100.535 160.652 100.64 160.374 100.64H155.819C155.564 100.64 155.436 100.535 155.436 100.321V82.6483ZM150.007 77.2553C149.745 77.2553 149.615 77.1505 149.615 76.9364V72.7368C149.615 72.525 149.745 72.418 150.007 72.418H166.195C166.45 72.418 166.578 72.525 166.578 72.7368V76.9364C166.578 77.1505 166.45 77.2553 166.195 77.2553H150.007Z" fill="white"/>
<path d="M183.442 77.822H190.001L183.196 87.3782V100.323C183.196 100.537 183.064 100.642 182.804 100.642H178.185C177.924 100.642 177.794 100.537 177.794 100.323V87.3782C176.104 84.955 174.396 82.5455 172.665 80.145C170.934 77.7469 169.212 75.3487 167.5 72.9483C167.404 72.8344 167.388 72.7183 167.454 72.6021C167.527 72.4814 167.657 72.4199 167.846 72.4199H173.421C173.585 72.4199 173.703 72.4564 173.776 72.5292L180.481 81.9488L183.442 77.822Z" fill="white"/>
</svg>
