<svg width="16" height="15" viewBox="0 0 16 15" fill="none" xmlns="http://www.w3.org/2000/svg">
<path d="M6.24609 6.08789V2.10156C6.24609 1.5599 6.38574 1.12402 6.66504 0.793945C6.94434 0.455404 7.32096 0.286133 7.79492 0.286133C8.26888 0.286133 8.64551 0.455404 8.9248 0.793945C9.21257 1.12402 9.35645 1.5599 9.35645 2.10156V6.08789H13.3428C13.8929 6.08789 14.333 6.23177 14.6631 6.51953C14.9932 6.79883 15.1582 7.17122 15.1582 7.63672C15.1582 8.10221 14.9932 8.47884 14.6631 8.7666C14.333 9.05436 13.8929 9.19824 13.3428 9.19824H9.35645V13.1846C9.35645 13.7262 9.21257 14.1663 8.9248 14.5049C8.64551 14.835 8.26888 15 7.79492 15C7.32096 15 6.94434 14.835 6.66504 14.5049C6.38574 14.1663 6.24609 13.7262 6.24609 13.1846V9.19824H2.25977C1.73503 9.19824 1.29915 9.04167 0.952148 8.72852C0.613607 8.4069 0.444336 8.04297 0.444336 7.63672C0.444336 7.17122 0.609375 6.79883 0.939453 6.51953C1.26953 6.23177 1.70964 6.08789 2.25977 6.08789H6.24609Z" fill="white"/>
</svg>
