<svg width="24" height="24" viewBox="0 0 24 24" fill="none" xmlns="http://www.w3.org/2000/svg">
<path d="M13.4996 6.5C14.5896 6.5 15.4996 5.58 15.4996 4.5C15.4996 3.96957 15.2889 3.46086 14.9139 3.08579C14.5388 2.71071 14.0301 2.5 13.4996 2.5C12.3896 2.5 11.4996 3.38 11.4996 4.5C11.4996 5.58 12.3896 6.5 13.4996 6.5ZM9.88965 20.38L10.8896 16L12.9996 18V24H14.9996V16.5L12.8896 14.5L13.4996 11.5C14.1844 12.2856 15.0297 12.9153 15.9785 13.3466C16.9272 13.7778 17.9575 14.0006 18.9996 14V12C17.0896 12 15.4996 11 14.6896 9.58L13.6896 8C13.2896 7.38 12.6896 7 11.9996 7C11.6896 7 11.4996 7.08 11.1896 7.08L5.99965 9.28V14H7.99965V10.58L9.78965 9.88L8.18965 18L3.28965 17L2.88965 19L9.88965 20.38Z" fill="#EB6A22"/>
</svg>
