<svg width="24" height="24" viewBox="0 0 24 24" fill="none" xmlns="http://www.w3.org/2000/svg">
<path d="M12.0122 2.25C12.7462 2.258 13.4772 2.343 14.1942 2.503C14.3468 2.53705 14.4848 2.6179 14.5892 2.73426C14.6935 2.85062 14.7589 2.99667 14.7762 3.152L14.9462 4.679C14.9702 4.89428 15.0444 5.10093 15.1629 5.28231C15.2813 5.46368 15.4406 5.61473 15.6281 5.72329C15.8155 5.83185 16.0259 5.89489 16.2421 5.90735C16.4584 5.9198 16.6745 5.88132 16.8732 5.795L18.2732 5.18C18.4155 5.11735 18.5737 5.10044 18.7259 5.13161C18.8782 5.16278 19.017 5.24049 19.1232 5.354C20.1355 6.43501 20.8894 7.73153 21.3282 9.146C21.3741 9.29474 21.3726 9.45406 21.3238 9.60189C21.2751 9.74971 21.1816 9.87871 21.0562 9.971L19.8152 10.887C19.6404 11.0152 19.4982 11.1827 19.4002 11.3761C19.3022 11.5695 19.2511 11.7832 19.2511 12C19.2511 12.2168 19.3022 12.4305 19.4002 12.6239C19.4982 12.8173 19.6404 12.9848 19.8152 13.113L21.0582 14.028C21.1838 14.1204 21.2774 14.2495 21.3262 14.3976C21.3749 14.5456 21.3763 14.7051 21.3302 14.854C20.8915 16.2683 20.138 17.5648 19.1262 18.646C19.0202 18.7595 18.8816 18.8372 18.7296 18.8686C18.5775 18.8999 18.4194 18.8833 18.2772 18.821L16.8712 18.204C16.6728 18.117 16.4567 18.0779 16.2404 18.09C16.0241 18.102 15.8136 18.1648 15.6261 18.2733C15.4386 18.3817 15.2792 18.5328 15.1609 18.7143C15.0426 18.8958 14.9687 19.1026 14.9452 19.318L14.7752 20.844C14.7582 20.9975 14.6943 21.142 14.5921 21.2578C14.4899 21.3736 14.3544 21.4551 14.2042 21.491C12.7558 21.8356 11.2467 21.8356 9.79822 21.491C9.64782 21.4553 9.51214 21.3739 9.40975 21.2581C9.30736 21.1423 9.24326 20.9976 9.22622 20.844L9.05722 19.32C9.03267 19.1053 8.95812 18.8994 8.83955 18.7187C8.72098 18.5381 8.56171 18.3877 8.37451 18.2798C8.18731 18.1718 7.97741 18.1093 7.76166 18.0972C7.54591 18.0851 7.33032 18.1237 7.13222 18.21L5.72622 18.826C5.58387 18.8885 5.42561 18.9053 5.27333 18.8739C5.12106 18.8426 4.98228 18.7647 4.87622 18.651C3.86429 17.5685 3.11106 16.2706 2.67322 14.855C2.62711 14.7061 2.62853 14.5466 2.67728 14.3986C2.72602 14.2505 2.81968 14.1214 2.94522 14.029L4.18822 13.113C4.36306 12.9848 4.50525 12.8173 4.60327 12.6239C4.70128 12.4305 4.75235 12.2168 4.75235 12C4.75235 11.7832 4.70128 11.5695 4.60327 11.3761C4.50525 11.1827 4.36306 11.0152 4.18822 10.887L2.94522 9.973C2.81968 9.88065 2.72602 9.75148 2.67728 9.60345C2.62853 9.45542 2.62711 9.29588 2.67322 9.147C3.11203 7.73253 3.86594 6.43601 4.87822 5.355C4.9844 5.24149 5.12323 5.16378 5.2755 5.13261C5.42777 5.10144 5.58597 5.11835 5.72822 5.181L7.12822 5.796C7.32723 5.88227 7.54371 5.92066 7.76026 5.90809C7.97681 5.89551 8.18739 5.83232 8.37509 5.7236C8.56278 5.61487 8.72236 5.46363 8.841 5.28204C8.95964 5.10045 9.03404 4.89356 9.05822 4.678L9.22822 3.152C9.24537 2.99635 9.31082 2.84998 9.41537 2.73341C9.51993 2.61684 9.65835 2.53592 9.81122 2.502C10.5342 2.34221 11.2718 2.25776 12.0122 2.25ZM12.0002 9C11.2046 9 10.4415 9.31607 9.87889 9.87868C9.31629 10.4413 9.00022 11.2044 9.00022 12C9.00022 12.7956 9.31629 13.5587 9.87889 14.1213C10.4415 14.6839 11.2046 15 12.0002 15C12.7959 15 13.5589 14.6839 14.1215 14.1213C14.6841 13.5587 15.0002 12.7956 15.0002 12C15.0002 11.2044 14.6841 10.4413 14.1215 9.87868C13.5589 9.31607 12.7959 9 12.0002 9Z" fill="white"/>
</svg>
