<svg width="50" height="50" viewBox="0 0 50 50" fill="none" xmlns="http://www.w3.org/2000/svg">
<rect width="50" height="50" rx="25" fill="white"/>
<path d="M25.7405 36.45C20.2805 36.45 17.3705 33.99 17.0105 29.07H19.6805C19.9605 32.47 22.0105 34.17 25.8305 34.17C27.6105 34.17 28.9605 33.83 29.8805 33.15C30.8205 32.47 31.2905 31.5 31.2905 30.24C31.2905 29.22 30.9405 28.42 30.2405 27.84C29.5605 27.24 28.4005 26.77 26.7605 26.43L23.7605 25.8C21.7605 25.38 20.2605 24.74 19.2605 23.88C18.2605 23 17.7605 21.78 17.7605 20.22C17.7605 18.36 18.4205 16.89 19.7405 15.81C21.0805 14.71 22.9505 14.16 25.3505 14.16C27.7305 14.16 29.6105 14.72 30.9905 15.84C32.3905 16.96 33.1705 18.55 33.3305 20.61H30.6605C30.5405 19.25 30.0205 18.22 29.1005 17.52C28.1805 16.8 26.9005 16.44 25.2605 16.44C23.7205 16.44 22.5205 16.75 21.6605 17.37C20.8205 17.99 20.4005 18.86 20.4005 19.98C20.4005 20.84 20.6905 21.53 21.2705 22.05C21.8505 22.55 22.8005 22.94 24.1205 23.22L27.8705 24.03C31.9505 24.89 33.9905 26.91 33.9905 30.09C33.9905 32.03 33.2805 33.58 31.8605 34.74C30.4605 35.88 28.4205 36.45 25.7405 36.45Z" fill="#BC8DE1"/>
</svg>
