<svg width="24" height="24" viewBox="0 0 24 24" fill="none" xmlns="http://www.w3.org/2000/svg">
<path fill-rule="evenodd" clip-rule="evenodd" d="M19.875 18C19.875 18.0995 19.8355 18.1948 19.7652 18.2652C19.6948 18.3355 19.5995 18.375 19.5 18.375H4.5C4.40054 18.375 4.30516 18.3355 4.23484 18.2652C4.16451 18.1948 4.125 18.0995 4.125 18V7.5C4.125 7.40054 4.16451 7.30516 4.23484 7.23484C4.30516 7.16451 4.40054 7.125 4.5 7.125H7.5C7.68542 7.12528 7.86803 7.07972 8.03159 6.99237C8.19516 6.90503 8.33459 6.77862 8.4375 6.62438L9.60187 4.875H14.3972L15.5625 6.62438C15.6654 6.77862 15.8048 6.90503 15.9684 6.99237C16.132 7.07972 16.3146 7.12528 16.5 7.125H19.5C19.5995 7.125 19.6948 7.16451 19.7652 7.23484C19.8355 7.30516 19.875 7.40054 19.875 7.5V18ZM9.49993 8.63339C10.24 8.13892 11.11 7.875 12 7.875C13.1931 7.87624 14.337 8.35075 15.1806 9.19439C16.0243 10.038 16.4988 11.1819 16.5 12.375C16.5 13.265 16.2361 14.135 15.7416 14.8751C15.2471 15.6151 14.5443 16.1919 13.7221 16.5325C12.8998 16.8731 11.995 16.9622 11.1221 16.7885C10.2492 16.6149 9.44736 16.1863 8.81802 15.557C8.18868 14.9276 7.7601 14.1258 7.58647 13.2529C7.41283 12.38 7.50195 11.4752 7.84254 10.6529C8.18314 9.83066 8.75991 9.12785 9.49993 8.63339Z" fill="white"/>
<path fill-rule="evenodd" clip-rule="evenodd" d="M17.1019 4.875H19.5C19.8447 4.875 20.1861 4.9429 20.5045 5.07482C20.823 5.20674 21.1124 5.40009 21.3562 5.64385C21.5999 5.8876 21.7933 6.17698 21.9252 6.49546C22.0571 6.81394 22.125 7.15528 22.125 7.5V18C22.125 18.3447 22.0571 18.6861 21.9252 19.0045C21.7933 19.323 21.5999 19.6124 21.3562 19.8562C21.1124 20.0999 20.823 20.2933 20.5045 20.4252C20.1861 20.5571 19.8447 20.625 19.5 20.625H4.5C3.80381 20.625 3.13613 20.3484 2.64384 19.8562C2.15156 19.3639 1.875 18.6962 1.875 18V7.5C1.875 6.80381 2.15156 6.13613 2.64384 5.64385C3.13613 5.15156 3.80381 4.875 4.5 4.875H6.89719L8.0625 3.12563C8.16541 2.97138 8.30484 2.84497 8.46841 2.75763C8.63197 2.67029 8.81458 2.62473 9 2.625H15C15.1854 2.62473 15.368 2.67029 15.5316 2.75763C15.6952 2.84497 15.8346 2.97138 15.9375 3.12563L17.1019 4.875ZM19.7652 18.2652C19.8355 18.1948 19.875 18.0995 19.875 18V7.5C19.875 7.40054 19.8355 7.30516 19.7652 7.23484C19.6948 7.16451 19.5995 7.125 19.5 7.125H16.5C16.3146 7.12528 16.132 7.07972 15.9684 6.99237C15.8048 6.90503 15.6654 6.77862 15.5625 6.62438L14.3972 4.875H9.60187L8.4375 6.62438C8.33459 6.77862 8.19516 6.90503 8.03159 6.99237C7.86803 7.07972 7.68542 7.12528 7.5 7.125H4.5C4.40054 7.125 4.30516 7.16451 4.23484 7.23484C4.16451 7.30516 4.125 7.40054 4.125 7.5V18C4.125 18.0995 4.16451 18.1948 4.23484 18.2652C4.30516 18.3355 4.40054 18.375 4.5 18.375H19.5C19.5995 18.375 19.6948 18.3355 19.7652 18.2652Z" fill="white"/>
</svg>
