<svg width="22" height="22" viewBox="0 0 22 22" fill="none" xmlns="http://www.w3.org/2000/svg">
<path d="M10.9999 1.8335C5.93992 1.8335 1.83325 5.94016 1.83325 11.0002C1.83325 16.0602 5.93992 20.1668 10.9999 20.1668C16.0599 20.1668 20.1666 16.0602 20.1666 11.0002C20.1666 5.94016 16.0599 1.8335 10.9999 1.8335ZM11.8341 16.6377C11.77 16.7005 11.6889 16.7431 11.6009 16.7603C11.5128 16.7774 11.4217 16.7684 11.3387 16.7342C11.2557 16.7 11.1846 16.6423 11.1342 16.5681C11.0837 16.4939 11.0562 16.4065 11.0549 16.3168V15.5835H10.9999C9.82658 15.5835 8.65325 15.1343 7.75492 14.2452C7.13253 13.6213 6.70299 12.8313 6.51768 11.9697C6.33236 11.1082 6.3991 10.2115 6.70992 9.38683C6.88409 8.91933 7.49825 8.80016 7.84659 9.15766C8.04825 9.35933 8.09408 9.65266 8.00242 9.90933C7.58075 11.046 7.81908 12.366 8.73575 13.2827C9.37742 13.9243 10.2208 14.2268 11.0641 14.2085V13.3468C11.0641 12.9343 11.5591 12.7327 11.8433 13.026L13.3283 14.511C13.5116 14.6943 13.5116 14.9785 13.3283 15.1618L11.8341 16.6377ZM14.1533 12.8518C14.0585 12.7543 13.9935 12.6318 13.9659 12.4987C13.9383 12.3655 13.9492 12.2273 13.9974 12.1002C14.4191 10.9635 14.1808 9.6435 13.2641 8.72683C12.6224 8.08516 11.7791 7.7735 10.9449 7.79183V8.6535C10.9449 9.066 10.4499 9.26766 10.1658 8.97433L8.67159 7.4985C8.48825 7.31516 8.48825 7.031 8.67159 6.84766L10.1566 5.36266C10.2206 5.29985 10.3017 5.25722 10.3898 5.24006C10.4779 5.2229 10.569 5.23196 10.652 5.26612C10.7349 5.30028 10.806 5.35804 10.8565 5.43223C10.9069 5.50642 10.9345 5.59379 10.9358 5.6835V6.426C12.1274 6.40766 13.3283 6.8385 14.2358 7.75516C14.8581 8.37907 15.2877 9.16903 15.473 10.0306C15.6583 10.8922 15.5916 11.7889 15.2808 12.6135C15.1066 13.0902 14.5016 13.2093 14.1533 12.8518Z" fill="white"/>
</svg>
