<svg width="88" height="88" viewBox="0 0 88 88" fill="none" xmlns="http://www.w3.org/2000/svg">
<path d="M79.3781 72.8746C74.1428 63.8237 66.075 57.3336 56.6597 54.2571C61.3169 51.4846 64.9353 47.26 66.9591 42.232C68.983 37.204 69.3004 31.6507 67.8627 26.4249C66.4249 21.199 63.3115 16.5896 59.0005 13.3045C54.6895 10.0194 49.4194 8.24023 43.9993 8.24023C38.5793 8.24023 33.3092 10.0194 28.9982 13.3045C24.6872 16.5896 21.5738 21.199 20.136 26.4249C18.6983 31.6507 19.0157 37.204 21.0395 42.232C23.0634 47.26 26.6818 51.4846 31.339 54.2571C21.9237 57.3302 13.8559 63.8202 8.62059 72.8746C8.42861 73.1876 8.30126 73.536 8.24607 73.899C8.19089 74.2621 8.20898 74.6325 8.29927 74.9885C8.38957 75.3444 8.55024 75.6787 8.77182 75.9715C8.99339 76.2644 9.27137 76.5099 9.58937 76.6936C9.90736 76.8773 10.2589 76.9954 10.6233 77.041C10.9877 77.0866 11.3575 77.0588 11.711 76.9591C12.0644 76.8595 12.3944 76.6901 12.6813 76.4609C12.9682 76.2317 13.2063 75.9473 13.3815 75.6246C19.8578 64.4321 31.3047 57.7496 43.9993 57.7496C56.694 57.7496 68.1409 64.4321 74.6172 75.6246C74.7924 75.9473 75.0305 76.2317 75.3174 76.4609C75.6043 76.6901 75.9342 76.8595 76.2877 76.9591C76.6412 77.0588 77.011 77.0866 77.3754 77.041C77.7398 76.9954 78.0913 76.8773 78.4093 76.6936C78.7273 76.5099 79.0053 76.2644 79.2269 75.9715C79.4484 75.6787 79.6091 75.3444 79.6994 74.9885C79.7897 74.6325 79.8078 74.2621 79.7526 73.899C79.6974 73.536 79.5701 73.1876 79.3781 72.8746ZM24.7493 32.9996C24.7493 29.1923 25.8783 25.4705 27.9936 22.3049C30.1088 19.1392 33.1152 16.6719 36.6327 15.2149C40.1502 13.7579 44.0207 13.3767 47.7548 14.1195C51.489 14.8622 54.919 16.6956 57.6111 19.3878C60.3033 22.0799 62.1367 25.51 62.8795 29.2441C63.6222 32.9782 63.241 36.8488 61.784 40.3662C60.327 43.8837 57.8597 46.8902 54.6941 49.0054C51.5284 51.1206 47.8066 52.2496 43.9993 52.2496C38.8956 52.2441 34.0025 50.2143 30.3936 46.6054C26.7847 42.9965 24.7548 38.1033 24.7493 32.9996Z" fill="white"/>
</svg>
