<svg width="25" height="24" viewBox="0 0 25 24" fill="none" xmlns="http://www.w3.org/2000/svg">
<path fill-rule="evenodd" clip-rule="evenodd" d="M17.3369 13.1299C18.7069 14.0599 19.6669 15.3199 19.6669 16.9999V19.9999H23.6669V16.9999C23.6669 14.8199 20.0969 13.5299 17.3369 13.1299Z" fill="white"/>
<path d="M9.66699 12C11.8761 12 13.667 10.2091 13.667 8C13.667 5.79086 11.8761 4 9.66699 4C7.45785 4 5.66699 5.79086 5.66699 8C5.66699 10.2091 7.45785 12 9.66699 12Z" fill="white"/>
<path fill-rule="evenodd" clip-rule="evenodd" d="M15.667 12C17.877 12 19.667 10.21 19.667 8C19.667 5.79 17.877 4 15.667 4C15.197 4 14.757 4.1 14.337 4.24C15.1975 5.30422 15.667 6.6314 15.667 8C15.667 9.3686 15.1975 10.6958 14.337 11.76C14.757 11.9 15.197 12 15.667 12ZM9.66699 13C6.99699 13 1.66699 14.34 1.66699 17V20H17.667V17C17.667 14.34 12.337 13 9.66699 13Z" fill="white"/>
</svg>
