<svg width="24" height="25" viewBox="0 0 24 25" fill="none" xmlns="http://www.w3.org/2000/svg">
<path d="M21.5299 20.9696L16.8358 16.2765C18.1963 14.6431 18.8748 12.548 18.73 10.4272C18.5852 8.30629 17.6283 6.32289 16.0584 4.88956C14.4885 3.45623 12.4264 2.68333 10.3012 2.73163C8.1759 2.77993 6.15108 3.64571 4.64791 5.14888C3.14474 6.65205 2.27895 8.67687 2.23065 10.8021C2.18235 12.9274 2.95526 14.9894 4.38859 16.5593C5.82191 18.1293 7.80531 19.0861 9.92618 19.2309C12.047 19.3757 14.1421 18.6973 15.7755 17.3368L20.4686 22.0308C20.5383 22.1005 20.621 22.1558 20.7121 22.1935C20.8031 22.2312 20.9007 22.2506 20.9992 22.2506C21.0978 22.2506 21.1954 22.2312 21.2864 22.1935C21.3775 22.1558 21.4602 22.1005 21.5299 22.0308C21.5995 21.9612 21.6548 21.8784 21.6925 21.7874C21.7302 21.6963 21.7497 21.5988 21.7497 21.5002C21.7497 21.4017 21.7302 21.3041 21.6925 21.213C21.6548 21.122 21.5995 21.0393 21.5299 20.9696ZM3.74924 11.0002C3.74924 9.66519 4.14512 8.36015 4.88682 7.25011C5.62852 6.14008 6.68272 5.27492 7.91612 4.76403C9.14953 4.25314 10.5067 4.11946 11.8161 4.37991C13.1255 4.64036 14.3282 5.28324 15.2722 6.22724C16.2162 7.17125 16.8591 8.37398 17.1195 9.68335C17.38 10.9927 17.2463 12.3499 16.7354 13.5833C16.2245 14.8167 15.3594 15.8709 14.2493 16.6126C13.1393 17.3543 11.8343 17.7502 10.4992 17.7502C8.70964 17.7482 6.9939 17.0364 5.72846 15.771C4.46302 14.5056 3.75122 12.7898 3.74924 11.0002Z" fill="white"/>
</svg>
